<?xml version="1.0" encoding="UTF-8" standalone="no"?>
<svg
   xmlns:dc="http://purl.org/dc/elements/1.1/"
   xmlns:cc="http://creativecommons.org/ns#"
   xmlns:rdf="http://www.w3.org/1999/02/22-rdf-syntax-ns#"
   xmlns:svg="http://www.w3.org/2000/svg"
   xmlns="http://www.w3.org/2000/svg"
   xmlns:sodipodi="http://sodipodi.sourceforge.net/DTD/sodipodi-0.dtd"
   xmlns:inkscape="http://www.inkscape.org/namespaces/inkscape"
   version="1.1"
   width="907.85266"
   height="244.80211"
   id="svg3358"
   inkscape:version="0.91 r13725"
   viewBox="0 0 907.8527 244.80211"
   sodipodi:docname="konovalovnk.svg">
  <metadata
     id="metadata3380">
    <rdf:RDF>
      <cc:Work
         rdf:about="">
        <dc:format>image/svg+xml</dc:format>
        <dc:type
           rdf:resource="http://purl.org/dc/dcmitype/StillImage" />
        <dc:title></dc:title>
      </cc:Work>
    </rdf:RDF>
  </metadata>
  <defs
     id="defs3378" />
  <sodipodi:namedview
     pagecolor="#ffffff"
     bordercolor="#666666"
     borderopacity="1"
     objecttolerance="10"
     gridtolerance="10"
     guidetolerance="10"
     inkscape:pageopacity="0"
     inkscape:pageshadow="2"
     inkscape:window-width="1920"
     inkscape:window-height="1031"
     id="namedview3376"
     showgrid="false"
     fit-margin-top="0"
     fit-margin-left="0"
     fit-margin-right="0"
     fit-margin-bottom="0"
     inkscape:showpageshadow="false"
     showborder="true"
     inkscape:zoom="0.72000007"
     inkscape:cx="477.92634"
     inkscape:cy="186.637"
     inkscape:window-x="-8"
     inkscape:window-y="-8"
     inkscape:window-maximized="1"
     inkscape:current-layer="svg3358" />
  <path
     d="m -122.0735,-430.72369 1199.9997,0 0,1199.9997 -1199.9997,0 0,-1199.9997 z"
     style="fill:none"
     id="path3360"
     inkscape:connector-curvature="0" />
  <path
     d="M 0,244.80211 0,-7.629395e-6 l 38.641,0 c 22.4459,0 38.8114,1.420500029395 49.2103,4.318600029395 14.7178,3.9209 26.4237,11.1378996 35.1179,21.6504996 8.6944,10.5692 13.07,23.0142 13.07,37.334 0,9.3191 -1.9891,17.7862 -5.91,25.4006 -3.9209,7.6148 -10.3422,14.774798 -19.2067,21.423198 14.8312,6.9896 25.6847,15.6838 32.5607,26.1963 6.8758,10.4559 10.2853,22.8436 10.2853,37.1637 0,13.75167 -3.5799,26.25288 -10.6832,37.56112 -7.1598,11.3082 -16.3656,19.775 -27.6169,25.344 -11.2512,5.6256 -26.7647,8.4101 -46.5964,8.4101 l -68.872,0 z m 46.3691,-200.478718 0,51.8244 10.3989,0 c 11.5923,0 20.2298,-2.3865 25.8554,-7.2167 5.6259,-4.7733 8.4101,-11.308 8.4101,-19.5477 0,-7.6714 -2.6708,-13.7518 -8.0121,-18.2977 -5.3416,-4.4892 -13.4677,-6.7623 -24.378,-6.7623 l -12.2743,0 z m 0,93.420598 0,62.73447 11.8196,0 c 19.6047,0 32.8448,-2.44338 39.6638,-7.33034 6.819,-4.88687 10.2286,-11.98983 10.2286,-21.30933 0,-10.5126 -3.9776,-18.8657 -11.99,-24.946 -8.0124,-6.0803 -21.3095,-9.1488 -39.8911,-9.1488 l -9.8309,0 z"
     style="fill:#c51617;fill-rule:evenodd"
     id="path3364"
     inkscape:connector-curvature="0" />
  <path
     d="m 201.1595,-7.629395e-6 49.4946,0 c 27.0485,0 46.3691,2.386500029395 57.8477,7.216800029395 11.5356,4.8301996 20.7412,12.8992996 27.7308,24.0938996 6.9894,11.1943 10.5126,24.4346 10.5126,39.7774 0,16.0815 -3.8642,29.548898 -11.5356,40.345798 -7.7281,10.8536 -19.3204,19.0364 -34.8338,24.5483 l 57.7913,108.81992 -50.9153,0 -55.0066,-103.64862 -4.7166,0 0,103.64862 -46.3691,0 0,-244.802117629395 z M 247.5286,95.807092 l 14.7745,0 c 15.0018,0 25.2873,-1.9321 30.9696,-5.853 5.6257,-3.9209 8.4671,-10.3992 8.4671,-19.491 0,-5.3416 -1.4207,-10.0012 -4.2052,-13.9791 -2.7845,-3.9778 -6.5347,-6.819 -11.2513,-8.5238 -4.6596,-1.7614 -13.297,-2.6138 -25.8553,-2.6138 l -12.8994,0 0,50.4607 z"
     style="fill:#c51617;fill-rule:evenodd"
     id="path3366"
     inkscape:connector-curvature="0" />
  <path
     d="m 423.8555,-7.629395e-6 69.838,0 0,244.802117629395 -46.3691,0 0,-201.160418 -50.4607,0 L 423.8555,-7.629395e-6 Z"
     style="fill:#263840;fill-rule:evenodd"
     id="path3368"
     inkscape:connector-curvature="0" />
  <path
     d="m 614.7881,-7.629395e-6 69.8381,0 0,244.802117629395 -46.3692,0 0,-201.160418 -50.4606,0 L 614.7881,-7.629395e-6 Z"
     style="fill:#263840;fill-rule:evenodd"
     id="path3370"
     inkscape:connector-curvature="0" />
  <path
     d="m 730.047,-7.629395e-6 47.0512,0 0,84.669199629395 66.2581,-84.669199629395 56.2,0 L 814.0344,109.27449 l 93.8183,135.52762 -55.2909,0 -75.4636,-109.04722 0,109.04722 -47.0512,0 0,-244.802117629395 z"
     style="fill:#c51617;fill-rule:evenodd"
     id="path3372"
     inkscape:connector-curvature="0" />
</svg>
